# xmcd CD database file
#
# Track frame offsets:
#	150
#	14161
#	28856
#	40121
#	52112
#	65542
#	80564
#	91782
#	102505
#	115858
#	127059
#	137789
#	155211
#	166171
#	178367
#	188457
#	202608
#	213015
#	233027
#	250099
#	319492
#	342078
#
# Disc length: 4727 seconds
#
# Revision: 0
# Processed by: cddbd v1.5.2PL0 Copyright (c) Steve Scherf et al.
# Submitted via: CDex 1.51
#
DISCID=3a127516
DTITLE=Mel Torme - The Very Best of Mel Torme
DYEAR=1900
DGENRE=Jazz
TTITLE0=Lulu's back in town
TTITLE1=Careless hands
TTITLE2=Mountain greenery
TTITLE3=Born to be blue
TTITLE4=A stranger in town
TTITLE5=Bewitched, bothered and bewildered
TTITLE6=Fascinating rhthym
TTITLE7=Puttin' on the Ritz
TTITLE8=The lady's in love with you
TTITLE9=Lullaby in Birdland
TTITLE10=Forty-second street
TTITLE11=Harlem Nocturne
TTITLE12=Sing you sinners
TTITLE13=Comin' home baby
TTITLE14=Right now
TTITLE15=All that jazz
TTITLE16=New York, New York
TTITLE17=It's Delovely
TTITLE18=What are you doing the rest of your life?
TTITLE19=Gershwin Medley
TTITLE20=A nightengale sang in Berkeley Square
TTITLE21=The Christmas Song
EXTD=
EXTT0=
EXTT1=
EXTT2=
EXTT3=
EXTT4=
EXTT5=
EXTT6=
EXTT7=
EXTT8=
EXTT9=
EXTT10=
EXTT11=
EXTT12=
EXTT13=
EXTT14=
EXTT15=
EXTT16=
EXTT17=
EXTT18=
EXTT19=
EXTT20=
EXTT21=
PLAYORDER=
